<svg width="82" height="82" viewBox="0 0 82 82" fill="none" xmlns="http://www.w3.org/2000/svg">
<rect width="82" height="82" rx="3" fill="#2D6FF6"/>
<path d="M21.7018 62.5789C20.0449 62.5789 18.7018 61.2358 18.7018 59.5789V23.8596C18.7018 22.2028 20.0449 20.8596 21.7018 20.8596H39.8346C41.4915 20.8596 42.8346 22.2028 42.8346 23.8596V23.9983C42.8346 25.6552 41.4915 26.9983 39.8346 26.9983H29.3501C27.6932 26.9983 26.3501 28.3415 26.3501 29.9983V35.4413C26.3501 37.0982 27.6932 38.4413 29.3501 38.4413H38.0621C39.7079 38.4413 41.042 39.7755 41.042 41.4213C41.042 43.0671 39.7079 44.4012 38.0621 44.4012H29.3501C27.6932 44.4012 26.3501 45.7444 26.3501 47.4012V53.4402C26.3501 55.0971 27.6932 56.4402 29.3501 56.4402H65.3334C66.9902 56.4402 68.3334 57.7834 68.3334 59.4402V59.5789C68.3334 61.2358 66.9902 62.5789 65.3334 62.5789H21.7018Z" fill="white"/>
<path d="M65.1373 45.6021C65.2569 45.6021 65.3538 45.699 65.3538 45.8186C65.3538 45.9382 65.2569 46.0351 65.1373 46.0351H63.5331C63.0308 46.0351 62.5767 45.7362 62.3781 45.2748C62.1795 44.8134 61.7254 44.5145 61.2231 44.5145H59.928C59.4257 44.5145 58.9716 44.8134 58.773 45.2748C58.5744 45.7362 58.1203 46.0351 57.6179 46.0351H56.0138C55.8942 46.0351 55.7972 45.9382 55.7972 45.8186C55.7972 45.699 55.8942 45.6021 56.0138 45.6021H56.4962C56.7749 45.6021 57.027 45.4365 57.1377 45.1808L59.5134 39.6933C59.6966 39.27 60.1138 38.996 60.575 38.996C61.0368 38.996 61.4543 39.2706 61.6372 39.6946L64.0021 45.1765C64.1135 45.4348 64.3679 45.6021 64.6492 45.6021H65.1373ZM61.1104 42.3268C60.91 41.8594 60.2479 41.858 60.0457 42.3246C59.8797 42.7074 60.1603 43.1349 60.5775 43.1349C60.9937 43.1349 61.2743 42.7093 61.1104 42.3268Z" fill="white"/>
<path d="M67.4144 45.6021C67.5339 45.6021 67.6309 45.699 67.6309 45.8186C67.6309 45.9382 67.5339 46.0351 67.4144 46.0351H64.5444C64.4248 46.0351 64.3279 45.9382 64.3279 45.8186C64.3279 45.699 64.4248 45.6021 64.5444 45.6021H64.7609C65 45.6021 65.1939 45.4082 65.1939 45.1691V40.9209C65.1939 40.3375 65.8074 39.9577 66.3296 40.2178C66.5963 40.3507 66.7648 40.6229 66.7648 40.9209V45.1691C66.7648 45.4082 66.9587 45.6021 67.1979 45.6021H67.4144Z" fill="white"/>
<path d="M65.1685 38.5221C65.1685 37.9983 65.7099 37.6496 66.1868 37.8664L66.3287 37.9309C66.5858 38.0478 66.7509 38.3042 66.7509 38.5866C66.7509 39.1105 66.2095 39.4591 65.7325 39.2424L65.5907 39.1779C65.3336 39.061 65.1685 38.8046 65.1685 38.5221Z" fill="#FFC700"/>
</svg>
