<svg width="14" height="17" viewBox="0 0 14 17" fill="none" xmlns="http://www.w3.org/2000/svg">
<path d="M2.20938 16.5C1.85938 16.5 1.55312 16.3667 1.29062 16.1C1.02812 15.8333 0.896875 15.5222 0.896875 15.1667V2.5H0.65625C0.466667 2.5 0.309896 2.43704 0.185938 2.31111C0.0619793 2.18519 0 2.02593 0 1.83333C0 1.64074 0.0619793 1.48148 0.185938 1.35556C0.309896 1.22963 0.466667 1.16667 0.65625 1.16667H4.1125C4.1125 0.974074 4.17448 0.814815 4.29844 0.688889C4.4224 0.562963 4.57917 0.5 4.76875 0.5H9.23125C9.42083 0.5 9.5776 0.562963 9.70156 0.688889C9.82552 0.814815 9.8875 0.974074 9.8875 1.16667H13.3438C13.5333 1.16667 13.6901 1.22963 13.8141 1.35556C13.938 1.48148 14 1.64074 14 1.83333C14 2.02593 13.938 2.18519 13.8141 2.31111C13.6901 2.43704 13.5333 2.5 13.3438 2.5H13.1031V15.1667C13.1031 15.5222 12.9719 15.8333 12.7094 16.1C12.4469 16.3667 12.1406 16.5 11.7906 16.5H2.20938ZM2.20938 2.5V15.1667H11.7906V2.5H2.20938ZM4.52813 12.5889C4.52813 12.7815 4.5901 12.9407 4.71406 13.0667C4.83802 13.1926 4.99479 13.2556 5.18438 13.2556C5.37396 13.2556 5.53073 13.1926 5.65469 13.0667C5.77865 12.9407 5.84063 12.7815 5.84063 12.5889V5.05556C5.84063 4.86296 5.77865 4.7037 5.65469 4.57778C5.53073 4.45185 5.37396 4.38889 5.18438 4.38889C4.99479 4.38889 4.83802 4.45185 4.71406 4.57778C4.5901 4.7037 4.52813 4.86296 4.52813 5.05556V12.5889ZM8.15937 12.5889C8.15937 12.7815 8.22135 12.9407 8.34531 13.0667C8.46927 13.1926 8.62604 13.2556 8.81562 13.2556C9.00521 13.2556 9.16198 13.1926 9.28594 13.0667C9.4099 12.9407 9.47187 12.7815 9.47187 12.5889V5.05556C9.47187 4.86296 9.4099 4.7037 9.28594 4.57778C9.16198 4.45185 9.00521 4.38889 8.81562 4.38889C8.62604 4.38889 8.46927 4.45185 8.34531 4.57778C8.22135 4.7037 8.15937 4.86296 8.15937 5.05556V12.5889ZM2.20938 2.5V15.1667V2.5V2.5Z" fill="#667085"/>
</svg>
