<svg width="6" height="8" viewBox="0 0 6 8" fill="none" xmlns="http://www.w3.org/2000/svg">
<mask id="path-1-inside-1_1_752" fill="white">
<path d="M3 4.72325L0.752768 7.34502C0.664207 7.44834 0.560886 7.5 0.442804 7.5C0.324723 7.5 0.221402 7.44834 0.132841 7.34502C0.0442805 7.2417 0 7.12116 0 6.98339C0 6.84563 0.0442805 6.72509 0.132841 6.62177L2.38007 4L0.132841 1.37823C0.0442805 1.27491 0 1.15437 0 1.01661C0 0.878844 0.0442805 0.758303 0.132841 0.654982C0.221402 0.551661 0.324723 0.5 0.442804 0.5C0.560886 0.5 0.664207 0.551661 0.752768 0.654982L3 3.27675L5.24723 0.654982C5.33579 0.551661 5.43911 0.5 5.5572 0.5C5.67528 0.5 5.7786 0.551661 5.86716 0.654982C5.95572 0.758303 6 0.878844 6 1.01661C6 1.15437 5.95572 1.27491 5.86716 1.37823L3.61993 4L5.86716 6.62177C5.95572 6.72509 6 6.84563 6 6.98339C6 7.12116 5.95572 7.2417 5.86716 7.34502C5.7786 7.44834 5.67528 7.5 5.5572 7.5C5.43911 7.5 5.33579 7.44834 5.24723 7.34502L3 4.72325Z"/>
</mask>
<path d="M3 4.72325L0.752768 7.34502C0.664207 7.44834 0.560886 7.5 0.442804 7.5C0.324723 7.5 0.221402 7.44834 0.132841 7.34502C0.0442805 7.2417 0 7.12116 0 6.98339C0 6.84563 0.0442805 6.72509 0.132841 6.62177L2.38007 4L0.132841 1.37823C0.0442805 1.27491 0 1.15437 0 1.01661C0 0.878844 0.0442805 0.758303 0.132841 0.654982C0.221402 0.551661 0.324723 0.5 0.442804 0.5C0.560886 0.5 0.664207 0.551661 0.752768 0.654982L3 3.27675L5.24723 0.654982C5.33579 0.551661 5.43911 0.5 5.5572 0.5C5.67528 0.5 5.7786 0.551661 5.86716 0.654982C5.95572 0.758303 6 0.878844 6 1.01661C6 1.15437 5.95572 1.27491 5.86716 1.37823L3.61993 4L5.86716 6.62177C5.95572 6.72509 6 6.84563 6 6.98339C6 7.12116 5.95572 7.2417 5.86716 7.34502C5.7786 7.44834 5.67528 7.5 5.5572 7.5C5.43911 7.5 5.33579 7.44834 5.24723 7.34502L3 4.72325Z" fill="#667085"/>
<path d="M3 4.72325L5.27777 2.77087L3 0.113474L0.72223 2.77087L3 4.72325ZM0.752768 7.34502L3.03054 9.29739L0.752768 7.34502ZM2.38007 4L4.65784 5.95237L6.33131 4L4.65784 2.04763L2.38007 4ZM0.132841 1.37823L-2.14493 3.3306H-2.14493L0.132841 1.37823ZM0.752768 0.654982L3.03054 -1.29739V-1.29739L0.752768 0.654982ZM3 3.27675L0.72223 5.22913L3 7.88653L5.27777 5.22913L3 3.27675ZM5.86716 1.37823L8.14493 3.3306V3.3306L5.86716 1.37823ZM3.61993 4L1.34216 2.04763L-0.331308 4L1.34216 5.95237L3.61993 4ZM5.86716 6.62177L8.14493 4.6694V4.6694L5.86716 6.62177ZM5.24723 7.34502L2.96946 9.29739L5.24723 7.34502ZM0.72223 2.77087L-1.525 5.39264L3.03054 9.29739L5.27777 6.67562L0.72223 2.77087ZM-1.525 5.39264C-1.35469 5.19394 -1.09653 4.95985 -0.73278 4.77797C-0.358398 4.59078 0.0468245 4.5 0.442804 4.5V10.5C1.57492 10.5 2.46861 9.95297 3.03054 9.29739L-1.525 5.39264ZM0.442804 4.5C0.838785 4.5 1.24401 4.59078 1.61839 4.77797C1.98214 4.95985 2.2403 5.19394 2.41061 5.39264L-2.14493 9.29739C-1.583 9.95297 -0.689312 10.5 0.442804 10.5V4.5ZM2.41061 5.39264C2.585 5.59609 2.74087 5.84771 2.84922 6.14267C2.95738 6.4371 3 6.72513 3 6.98339H-3C-3 7.82758 -2.70582 8.64302 -2.14493 9.29739L2.41061 5.39264ZM3 6.98339C3 7.24166 2.95738 7.52969 2.84922 7.82412C2.74086 8.11909 2.58499 8.3707 2.41061 8.57415L-2.14493 4.6694C-2.70582 5.32377 -3 6.1392 -3 6.98339H3ZM2.41061 8.57415L4.65784 5.95237L0.102304 2.04763L-2.14493 4.6694L2.41061 8.57415ZM4.65784 2.04763L2.41061 -0.574145L-2.14493 3.3306L0.102304 5.95237L4.65784 2.04763ZM2.41061 -0.574145C2.585 -0.370697 2.74086 -0.119086 2.84922 0.17588C2.95738 0.470311 3 0.758342 3 1.01661H-3C-3 1.86079 -2.70582 2.67623 -2.14493 3.3306L2.41061 -0.574145ZM3 1.01661C3 1.27487 2.95738 1.5629 2.84922 1.85733C2.74086 2.1523 2.58499 2.40391 2.41061 2.60736L-2.14493 -1.29739C-2.70582 -0.643019 -3 0.172414 -3 1.01661H3ZM2.41061 2.60736C2.2403 2.80606 1.98215 3.04015 1.6184 3.22203C1.24401 3.40922 0.838789 3.5 0.442804 3.5V-2.5C-0.68932 -2.5 -1.58301 -1.95296 -2.14493 -1.29739L2.41061 2.60736ZM0.442804 3.5C0.0468199 3.5 -0.358404 3.40922 -0.732785 3.22203C-1.09653 3.04015 -1.35469 2.80606 -1.525 2.60736L3.03054 -1.29739C2.46862 -1.95297 1.57493 -2.5 0.442804 -2.5V3.5ZM-1.525 2.60736L0.72223 5.22913L5.27777 1.32438L3.03054 -1.29739L-1.525 2.60736ZM5.27777 5.22913L7.525 2.60736L2.96946 -1.29739L0.72223 1.32438L5.27777 5.22913ZM7.525 2.60736C7.35469 2.80605 7.09654 3.04015 6.73279 3.22203C6.35841 3.40922 5.95318 3.5 5.5572 3.5V-2.5C4.42507 -2.5 3.53138 -1.95296 2.96946 -1.29739L7.525 2.60736ZM5.5572 3.5C5.16121 3.5 4.75599 3.40922 4.38161 3.22203C4.01786 3.04015 3.7597 2.80606 3.58939 2.60736L8.14493 -1.29739C7.58301 -1.95297 6.68932 -2.5 5.5572 -2.5V3.5ZM3.58939 2.60736C3.415 2.40391 3.25913 2.15229 3.15078 1.85733C3.04262 1.56289 3 1.27487 3 1.01661H9C9 0.172421 8.70582 -0.643014 8.14493 -1.29739L3.58939 2.60736ZM3 1.01661C3 0.758345 3.04262 0.470316 3.15078 0.175884C3.25913 -0.119082 3.415 -0.370695 3.58939 -0.574145L8.14493 3.3306C8.70583 2.67622 9 1.86079 9 1.01661H3ZM3.58939 -0.574145L1.34216 2.04763L5.8977 5.95237L8.14493 3.3306L3.58939 -0.574145ZM1.34216 5.95237L3.58939 8.57415L8.14493 4.6694L5.8977 2.04763L1.34216 5.95237ZM3.58939 8.57415C3.41501 8.3707 3.25914 8.11909 3.15078 7.82412C3.04262 7.52969 3 7.24166 3 6.98339H9C9 6.13921 8.70582 5.32377 8.14493 4.6694L3.58939 8.57415ZM3 6.98339C3 6.72513 3.04262 6.43711 3.15078 6.14267C3.25913 5.84771 3.415 5.5961 3.58939 5.39264L8.14493 9.29739C8.70583 8.64301 9 7.82758 9 6.98339H3ZM3.58939 5.39264C3.75971 5.19394 4.01786 4.95985 4.38161 4.77797C4.75599 4.59078 5.16122 4.5 5.5572 4.5V10.5C6.68931 10.5 7.583 9.95297 8.14493 9.29739L3.58939 5.39264ZM5.5572 4.5C5.95318 4.5 6.3584 4.59078 6.73278 4.77797C7.09654 4.95985 7.35469 5.19395 7.525 5.39264L2.96946 9.29739C3.53138 9.95297 4.42508 10.5 5.5572 10.5V4.5ZM7.525 5.39264L5.27777 2.77087L0.72223 6.67562L2.96946 9.29739L7.525 5.39264Z" fill="#667085" mask="url(#path-1-inside-1_1_752)"/>
</svg>
